<svg xmlns="http://www.w3.org/2000/svg" xmlns:xlink="http://www.w3.org/1999/xlink" width="430" zoomAndPan="magnify" viewBox="0 0 322.5 101.249998" height="135" preserveAspectRatio="xMidYMid meet" version="1.0"><defs><g/><clipPath id="id1"><path d="M 27 6.042969 L 94 6.042969 L 94 94 L 27 94 Z M 27 6.042969 " clip-rule="nonzero"/></clipPath><clipPath id="id2"><path d="M 46.117188 7.726562 L 74.925781 7.726562 L 74.925781 47.34375 L 46.117188 47.34375 Z M 46.117188 7.726562 " clip-rule="nonzero"/></clipPath><clipPath id="id3"><path d="M 32.730469 73 L 88.351562 73 L 88.351562 92.613281 L 32.730469 92.613281 Z M 32.730469 73 " clip-rule="nonzero"/></clipPath><clipPath id="id4"><path d="M 35 81 L 37 81 L 37 92.613281 L 35 92.613281 Z M 35 81 " clip-rule="nonzero"/></clipPath><clipPath id="id5"><path d="M 35 64.203125 L 86 64.203125 L 86 87 L 35 87 Z M 35 64.203125 " clip-rule="nonzero"/></clipPath><clipPath id="id6"><path d="M 84 81 L 86 81 L 86 92.613281 L 84 92.613281 Z M 84 81 " clip-rule="nonzero"/></clipPath></defs><g clip-path="url(#id1)"><path fill="rgb(100%, 100%, 100%)" d="M 93.742188 93.734375 L 27.117188 93.734375 L 27.117188 40.214844 C 27.117188 31.289062 30.582031 22.898438 36.875 16.589844 C 43.167969 10.277344 51.53125 6.800781 60.429688 6.800781 C 69.328125 6.800781 77.695312 10.277344 83.988281 16.589844 C 90.277344 22.898438 93.742188 31.289062 93.742188 40.214844 Z M 28.597656 92.25 L 92.261719 92.25 L 92.261719 40.214844 C 92.261719 22.609375 77.984375 8.289062 60.429688 8.289062 C 42.878906 8.289062 28.597656 22.609375 28.597656 40.214844 Z M 28.597656 92.25 " fill-opacity="1" fill-rule="nonzero"/></g><g clip-path="url(#id2)"><path fill="rgb(100%, 100%, 100%)" d="M 73.878906 43.332031 C 73.851562 43.375 73.789062 43.445312 73.679688 43.457031 C 64.953125 44.273438 56.097656 44.273438 47.363281 43.457031 C 47.253906 43.445312 47.191406 43.375 47.164062 43.332031 C 47.113281 43.257812 47.101562 43.167969 47.125 43.082031 C 48.308594 39.332031 51.085938 34.230469 57.613281 31.222656 C 58.535156 30.796875 59.128906 29.863281 59.128906 28.835938 L 59.128906 28.773438 C 59.128906 28.199219 59.582031 27.734375 60.136719 27.734375 L 60.90625 27.734375 C 61.460938 27.734375 61.910156 28.199219 61.910156 28.773438 L 61.910156 28.835938 C 61.914062 29.863281 62.507812 30.796875 63.429688 31.222656 C 69.957031 34.230469 72.734375 39.332031 73.914062 43.082031 C 73.941406 43.167969 73.929688 43.257812 73.878906 43.332031 Z M 60.53125 46.273438 C 59.507812 46.273438 58.558594 45.78125 57.941406 44.976562 C 58.804688 44.992188 59.664062 45.003906 60.527344 45.003906 C 61.390625 45.003906 62.257812 44.992188 63.121094 44.976562 C 62.507812 45.78125 61.554688 46.273438 60.53125 46.273438 Z M 74.808594 42.800781 C 73.570312 38.871094 70.660156 33.527344 63.820312 30.375 C 63.230469 30.105469 62.847656 29.5 62.847656 28.835938 L 62.847656 28.773438 C 62.847656 27.714844 62.019531 26.851562 60.988281 26.804688 L 60.988281 8.328125 C 60.988281 8.074219 60.777344 7.863281 60.519531 7.863281 C 60.261719 7.863281 60.054688 8.074219 60.054688 8.328125 L 60.054688 26.804688 C 59.019531 26.851562 58.195312 27.714844 58.195312 28.773438 L 58.195312 28.835938 C 58.191406 29.5 57.8125 30.105469 57.21875 30.375 C 50.382812 33.527344 47.472656 38.871094 46.234375 42.800781 C 46.121094 43.15625 46.175781 43.539062 46.382812 43.847656 C 46.589844 44.15625 46.910156 44.351562 47.273438 44.382812 C 50.445312 44.679688 53.632812 44.867188 56.820312 44.953125 C 57.550781 46.328125 58.976562 47.203125 60.53125 47.203125 C 62.085938 47.203125 63.511719 46.328125 64.246094 44.949219 C 67.429688 44.867188 70.605469 44.679688 73.765625 44.382812 C 74.128906 44.351562 74.453125 44.15625 74.65625 43.847656 C 74.863281 43.539062 74.917969 43.15625 74.808594 42.800781 " fill-opacity="1" fill-rule="nonzero"/></g><g clip-path="url(#id3)"><path fill="rgb(100%, 100%, 100%)" d="M 36.386719 91.449219 L 84.644531 91.449219 L 84.644531 81.820312 C 84.644531 81.589844 84.777344 81.382812 84.988281 81.289062 C 86.277344 80.710938 87.113281 79.460938 87.113281 78.105469 C 87.113281 76.164062 85.457031 74.585938 83.421875 74.585938 C 81.382812 74.585938 79.726562 76.164062 79.726562 78.105469 L 79.726562 85.527344 C 79.726562 85.851562 79.464844 86.109375 79.144531 86.109375 L 41.9375 86.109375 C 41.617188 86.109375 41.355469 85.851562 41.355469 85.527344 L 41.355469 78.105469 C 41.355469 76.164062 39.699219 74.585938 37.660156 74.585938 C 35.625 74.585938 33.96875 76.164062 33.96875 78.105469 C 33.96875 79.460938 34.804688 80.710938 36.09375 81.289062 C 36.304688 81.382812 36.4375 81.589844 36.4375 81.820312 L 36.4375 85.527344 C 36.4375 85.613281 36.421875 85.695312 36.386719 85.769531 Z M 85.222656 92.613281 L 35.804688 92.613281 C 35.484375 92.613281 35.222656 92.351562 35.222656 92.03125 L 35.222656 85.527344 C 35.222656 85.441406 35.242188 85.359375 35.277344 85.289062 L 35.277344 82.183594 C 33.765625 81.355469 32.804688 79.796875 32.804688 78.105469 C 32.804688 75.523438 34.984375 73.421875 37.660156 73.421875 C 40.339844 73.421875 42.515625 75.523438 42.515625 78.105469 L 42.515625 84.945312 L 78.5625 84.945312 L 78.5625 78.105469 C 78.5625 75.523438 80.742188 73.421875 83.421875 73.421875 C 86.097656 73.421875 88.277344 75.523438 88.277344 78.105469 C 88.277344 79.796875 87.316406 81.355469 85.804688 82.183594 L 85.804688 92.03125 C 85.804688 92.351562 85.542969 92.613281 85.222656 92.613281 " fill-opacity="1" fill-rule="nonzero"/></g><g clip-path="url(#id4)"><path fill="rgb(100%, 100%, 100%)" d="M 35.804688 92.613281 C 35.484375 92.613281 35.222656 92.351562 35.222656 92.03125 L 35.222656 81.796875 C 35.222656 81.597656 35.324219 81.414062 35.492188 81.304688 C 35.65625 81.199219 35.867188 81.183594 36.046875 81.265625 C 36.0625 81.273438 36.078125 81.28125 36.09375 81.289062 C 36.300781 81.382812 36.4375 81.589844 36.4375 81.820312 L 36.4375 85.527344 C 36.4375 85.613281 36.421875 85.695312 36.386719 85.769531 L 36.386719 92.03125 C 36.386719 92.351562 36.125 92.613281 35.804688 92.613281 " fill-opacity="1" fill-rule="nonzero"/></g><g clip-path="url(#id5)"><path fill="rgb(100%, 100%, 100%)" d="M 42.515625 84.945312 L 78.5625 84.945312 L 78.5625 78.105469 C 78.5625 75.523438 80.742188 73.421875 83.421875 73.421875 C 83.835938 73.421875 84.246094 73.472656 84.644531 73.574219 L 84.644531 67.695312 C 84.644531 66.410156 83.597656 65.367188 82.316406 65.367188 L 38.710938 65.367188 C 37.429688 65.367188 36.386719 66.410156 36.386719 67.695312 L 36.386719 73.585938 C 36.800781 73.476562 37.226562 73.421875 37.660156 73.421875 C 40.339844 73.421875 42.515625 75.523438 42.515625 78.105469 Z M 79.144531 86.109375 L 41.9375 86.109375 C 41.617188 86.109375 41.355469 85.851562 41.355469 85.527344 L 41.355469 78.105469 C 41.355469 76.164062 39.699219 74.585938 37.660156 74.585938 C 37.097656 74.585938 36.554688 74.703125 36.050781 74.9375 C 35.867188 75.023438 35.660156 75.007812 35.492188 74.898438 C 35.324219 74.792969 35.222656 74.609375 35.222656 74.410156 L 35.222656 67.695312 C 35.222656 65.769531 36.789062 64.203125 38.710938 64.203125 L 82.316406 64.203125 C 84.238281 64.203125 85.804688 65.769531 85.804688 67.695312 L 85.804688 74.386719 C 85.804688 74.585938 85.707031 74.769531 85.539062 74.875 C 85.375 74.984375 85.167969 75 84.988281 74.917969 C 84.492188 74.699219 83.96875 74.585938 83.421875 74.585938 C 81.382812 74.585938 79.726562 76.164062 79.726562 78.105469 L 79.726562 85.527344 C 79.726562 85.851562 79.464844 86.109375 79.144531 86.109375 " fill-opacity="1" fill-rule="nonzero"/></g><g clip-path="url(#id6)"><path fill="rgb(100%, 100%, 100%)" d="M 85.222656 92.613281 C 84.902344 92.613281 84.644531 92.351562 84.644531 92.03125 L 84.644531 81.820312 C 84.644531 81.5 84.902344 81.238281 85.222656 81.238281 C 85.542969 81.238281 85.804688 81.5 85.804688 81.820312 L 85.804688 92.03125 C 85.804688 92.351562 85.542969 92.613281 85.222656 92.613281 " fill-opacity="1" fill-rule="nonzero"/></g><path fill="rgb(100%, 100%, 100%)" d="M 42.515625 84.945312 L 59.960938 84.945312 L 59.960938 84.121094 L 42.515625 84.121094 Z M 60.539062 86.109375 L 41.9375 86.109375 C 41.617188 86.109375 41.355469 85.851562 41.355469 85.527344 L 41.355469 83.539062 C 41.355469 83.21875 41.617188 82.957031 41.9375 82.957031 L 60.539062 82.957031 C 60.863281 82.957031 61.121094 83.21875 61.121094 83.539062 L 61.121094 85.527344 C 61.121094 85.851562 60.863281 86.109375 60.539062 86.109375 " fill-opacity="1" fill-rule="nonzero"/><path fill="rgb(100%, 100%, 100%)" d="M 61.121094 84.945312 L 78.5625 84.945312 L 78.5625 84.121094 L 61.121094 84.121094 Z M 79.144531 86.109375 L 60.539062 86.109375 C 60.21875 86.109375 59.960938 85.851562 59.960938 85.527344 L 59.960938 83.539062 C 59.960938 83.21875 60.21875 82.957031 60.539062 82.957031 L 79.144531 82.957031 C 79.464844 82.957031 79.726562 83.21875 79.726562 83.539062 L 79.726562 85.527344 C 79.726562 85.851562 79.464844 86.109375 79.144531 86.109375 " fill-opacity="1" fill-rule="nonzero"/><g fill="rgb(100%, 100%, 100%)" fill-opacity="1"><g transform="translate(112.783411, 44.365547)"><g><path d="M 14.582031 0.652344 C 21.664062 0.652344 25.988281 -2.945312 25.988281 -8.6875 C 25.988281 -15.460938 19.863281 -16.839844 14.925781 -17.949219 C 11.597656 -18.714844 8.765625 -19.367188 8.765625 -21.472656 C 8.765625 -23.308594 10.679688 -24.074219 12.628906 -24.074219 C 15.5 -24.074219 17.492188 -22.582031 18.179688 -20.09375 L 25.261719 -20.09375 C 24.34375 -26.601562 18.90625 -29.816406 12.785156 -29.816406 C 6.8125 -29.816406 1.953125 -26.945312 1.953125 -20.898438 C 1.953125 -14.46875 7.808594 -13.167969 12.707031 -12.054688 C 16.152344 -11.289062 19.097656 -10.640625 19.097656 -8.34375 C 19.097656 -6.046875 16.878906 -5.089844 14.542969 -5.089844 C 11.902344 -5.089844 9.261719 -6.085938 8.265625 -9.914062 L 1.1875 -9.914062 C 1.722656 -1.722656 9.070312 0.652344 14.582031 0.652344 Z M 14.582031 0.652344 "/></g></g></g><g fill="rgb(100%, 100%, 100%)" fill-opacity="1"><g transform="translate(140.990207, 44.365547)"><g><path d="M 7.347656 0 L 8.917969 -5.242188 L 18.640625 -5.242188 L 20.207031 0 L 27.480469 0 L 17.492188 -29.203125 L 10.066406 -29.203125 L 0.078125 0 Z M 13.777344 -21.585938 L 16.839844 -11.175781 L 10.714844 -11.175781 Z M 13.777344 -21.585938 "/></g></g></g><g fill="rgb(100%, 100%, 100%)" fill-opacity="1"><g transform="translate(169.503184, 44.365547)"><g><path d="M 18.484375 0 L 21.777344 -22.046875 L 25.070312 0 L 36.167969 0 L 43.132812 -29.203125 L 35.9375 -29.203125 L 30.734375 -4.859375 L 26.484375 -29.203125 L 17.070312 -29.203125 L 12.820312 -4.898438 L 7.617188 -29.203125 L 0.421875 -29.203125 L 7.386719 0 Z M 18.484375 0 "/></g></g></g><g fill="rgb(100%, 100%, 100%)" fill-opacity="1"><g transform="translate(214.013976, 44.365547)"><g><path d="M 17.339844 0 L 17.339844 -11.597656 L 27.785156 -29.203125 L 19.789062 -29.203125 L 13.742188 -18.21875 L 7.691406 -29.203125 L -0.304688 -29.203125 L 10.140625 -11.597656 L 10.140625 0 Z M 17.339844 0 "/></g></g></g><g fill="rgb(100%, 100%, 100%)" fill-opacity="1"><g transform="translate(242.450399, 44.365547)"><g><path d="M 22.238281 0 L 22.238281 -6.125 L 9.148438 -6.125 L 9.148438 -11.558594 L 20.972656 -11.558594 L 20.972656 -17.644531 L 9.148438 -17.644531 L 9.148438 -23.078125 L 22.238281 -23.078125 L 22.238281 -29.203125 L 2.296875 -29.203125 L 2.296875 0 Z M 22.238281 0 "/></g></g></g><g fill="rgb(100%, 100%, 100%)" fill-opacity="1"><g transform="translate(267.28924, 44.365547)"><g><path d="M 21.128906 -12.515625 C 23.691406 -13.96875 25.300781 -16.6875 25.300781 -20.398438 C 25.300781 -26.753906 21.433594 -29.203125 16.074219 -29.203125 L 2.296875 -29.203125 L 2.296875 0 L 9.148438 0 L 9.148438 -11.253906 L 14.695312 -11.253906 L 18.945312 0 L 26.179688 0 Z M 15.117188 -23.078125 C 17.339844 -23.078125 18.523438 -22.082031 18.523438 -20.171875 C 18.523438 -18.179688 17.339844 -17.183594 15.117188 -17.183594 L 9.148438 -17.183594 L 9.148438 -23.078125 Z M 15.117188 -23.078125 "/></g></g></g><g fill="rgb(100%, 100%, 100%)" fill-opacity="1"><g transform="translate(112.783411, 84.630075)"><g><path d="M 15.386719 0 L 15.386719 -23.078125 L 23.613281 -23.078125 L 23.613281 -29.203125 L 0.304688 -29.203125 L 0.304688 -23.078125 L 8.535156 -23.078125 L 8.535156 0 Z M 15.386719 0 "/></g></g></g><g fill="rgb(100%, 100%, 100%)" fill-opacity="1"><g transform="translate(137.660508, 84.630075)"><g><path d="M 7.347656 0 L 8.917969 -5.242188 L 18.640625 -5.242188 L 20.207031 0 L 27.480469 0 L 17.492188 -29.203125 L 10.066406 -29.203125 L 0.078125 0 Z M 13.777344 -21.585938 L 16.839844 -11.175781 L 10.714844 -11.175781 Z M 13.777344 -21.585938 "/></g></g></g><g fill="rgb(100%, 100%, 100%)" fill-opacity="1"><g transform="translate(166.173486, 84.630075)"><g><path d="M 21.050781 0 L 21.050781 -6.125 L 9.148438 -6.125 L 9.148438 -29.203125 L 2.296875 -29.203125 L 2.296875 0 Z M 21.050781 0 "/></g></g></g><g fill="rgb(100%, 100%, 100%)" fill-opacity="1"><g transform="translate(188.486343, 84.630075)"><g><path d="M 9.148438 0 L 9.148438 -13.089844 L 18.292969 0 L 26.601562 0 L 15.730469 -15.042969 L 26.445312 -29.203125 L 18.21875 -29.203125 L 9.148438 -16.535156 L 9.148438 -29.203125 L 2.296875 -29.203125 L 2.296875 0 Z M 9.148438 0 "/></g></g></g><g fill="rgb(100%, 100%, 100%)" fill-opacity="1"><g transform="translate(216.042502, 84.630075)"><g><path d="M 14.582031 0.652344 C 21.664062 0.652344 25.988281 -2.945312 25.988281 -8.6875 C 25.988281 -15.460938 19.863281 -16.839844 14.925781 -17.949219 C 11.597656 -18.714844 8.765625 -19.367188 8.765625 -21.472656 C 8.765625 -23.308594 10.679688 -24.074219 12.628906 -24.074219 C 15.5 -24.074219 17.492188 -22.582031 18.179688 -20.09375 L 25.261719 -20.09375 C 24.34375 -26.601562 18.90625 -29.816406 12.785156 -29.816406 C 6.8125 -29.816406 1.953125 -26.945312 1.953125 -20.898438 C 1.953125 -14.46875 7.808594 -13.167969 12.707031 -12.054688 C 16.152344 -11.289062 19.097656 -10.640625 19.097656 -8.34375 C 19.097656 -6.046875 16.878906 -5.089844 14.542969 -5.089844 C 11.902344 -5.089844 9.261719 -6.085938 8.265625 -9.914062 L 1.1875 -9.914062 C 1.722656 -1.722656 9.070312 0.652344 14.582031 0.652344 Z M 14.582031 0.652344 "/></g></g></g></svg>